Coordinates
version=1
nRows=12
nColumns=46
inDegrees=yes

Units are S.I. units (second, meters, Newtons, ...)
Angles are in degrees.

endheader
time	pelvis_tilt	pelvis_list	pelvis_rotation	pelvis_tx	pelvis_ty	pelvis_tz	bb_angle	bb_tx	bb_ty	bb_tz	hip_flexion_r	hip_adduction_r	hip_rotation_r	knee_angle_r	knee_angle_r_beta	ankle_angle_r	subtalar_angle_r	mtp_angle_r	crank_angle_r	hip_flexion_l	hip_adduction_l	hip_rotation_l	knee_angle_l	knee_angle_l_beta	ankle_angle_l	subtalar_angle_l	mtp_angle_l	crank_angle_l	lumbar_extension	lumbar_bending	lumbar_rotation	arm_flex_r	arm_add_r	arm_rot_r	elbow_flex_r	pro_sup_r	wrist_flex_r	wrist_dev_r	arm_flex_l	arm_add_l	arm_rot_l	elbow_flex_l	pro_sup_l	wrist_flex_l	wrist_dev_l
      7.50500000	    -26.08810901	    -10.27117192	     -5.13495630	      0.38970818	      1.05660383	     -0.24710468	      0.00000000	      0.50000000	      0.00000000	      0.25000000	     70.02374898	      7.32566612	      1.55998021	    114.16826545	      1.99261213	     12.27825860	     -0.25587187	      0.00000000	      0.00000000	     37.72675277	    -16.51250417	     -1.72108060	     30.14464472	      0.52612330	     -6.65105743	     -1.80628094	      0.00000000	      0.00000000	    -52.59728821	      6.33155745	     11.77791547	     36.94125081	    -23.67511875	     13.58814215	     93.33440500	     52.58038349	      0.00000000	      0.00000000	     34.28968426	    -24.43784286	     16.83220743	     93.10328790	     48.93262685	      0.00000000	      0.00000000
      7.51000000	    -26.10863410	    -10.37971185	     -6.05102902	      0.39006540	      1.05655081	     -0.24719212	      0.00000000	      0.50000000	      0.00000000	      0.25000000	     71.35688803	      7.81472971	      1.65134761	    114.88893112	      2.00519012	     12.90497784	      0.32878561	      0.00000000	      0.00000000	     36.30456996	    -17.11910223	     -2.59216419	     29.20018164	      0.50963931	     -7.28237281	     -1.19028711	      0.00000000	      0.00000000	    -52.65742643	      6.23150466	     13.02272289	     36.95902859	    -25.11490267	     14.22906018	     94.00988678	     52.76069045	      0.00000000	      0.00000000	     34.47352131	    -23.27128942	     16.71364726	     92.10431278	     48.77759961	      0.00000000	      0.00000000
      7.51500000	    -26.31489900	    -10.48411716	     -6.87679487	      0.39024375	      1.05632629	     -0.24724123	      0.00000000	      0.50000000	      0.00000000	      0.25000000	     72.82094168	      8.29872552	      1.65077127	    115.40537501	      2.01420377	     13.44069302	      0.42670527	      0.00000000	      0.00000000	     35.21352241	    -17.65059721	     -3.29094661	     28.45079628	      0.49656007	     -7.86042487	     -0.82706401	      0.00000000	      0.00000000	    -52.54856793	      6.25209540	     13.62900019	     37.23006225	    -25.31717332	     14.31315452	     94.19078400	     52.78618131	      0.00000000	      0.00000000	     34.11565629	    -23.00124494	     16.82548472	     91.84677399	     48.75110920	      0.00000000	      0.00000000
      7.52000000	    -26.20292165	    -10.37292800	     -7.98367458	      0.39074853	      1.05690237	     -0.24684297	      0.00000000	      0.50000000	      0.00000000	      0.25000000	     73.86540359	      9.02353802	      1.99595959	    115.76575793	      2.02049364	     14.14230704	      1.05446715	      0.00000000	      0.00000000	     33.67416650	    -18.21659016	     -4.86115623	     27.85728765	      0.48620139	     -8.29597193	      0.02805810	      0.00000000	      0.00000000	    -52.80736676	      5.81918004	     14.96903967	     36.97454231	    -27.01369152	     14.87162121	     95.16644134	     53.01735865	      0.00000000	      0.00000000	     34.50828819	    -21.65430042	     16.62102452	     90.41000411	     48.54804308	      0.00000000	      0.00000000
      7.52500000	    -26.41914470	    -10.33624250	     -8.80509609	      0.39083023	      1.05712466	     -0.24661500	      0.00000000	      0.50000000	      0.00000000	      0.25000000	     75.16786708	      9.42155933	      1.94223472	    115.89720769	      2.02278787	     14.80366189	      1.14952234	      0.00000000	      0.00000000	     32.74934021	    -18.62383120	     -5.75711182	     27.46088290	      0.47928282	     -8.87979066	      0.30387854	      0.00000000	      0.00000000	    -52.80733345	      5.73768445	     15.59022826	     37.34983607	    -27.14854575	     14.91532311	     95.35562127	     53.04718150	      0.00000000	      0.00000000	     34.20741506	    -21.52221382	     16.61551080	     90.21609067	     48.52400934	      0.00000000	      0.00000000
      7.53000000	    -26.45935846	    -10.14695333	     -9.82849733	      0.39118616	      1.05782805	     -0.24606347	      0.00000000	      0.50000000	      0.00000000	      0.25000000	     76.18459757	     10.03738093	      2.20889926	    115.84592533	      2.02189282	     15.50531177	      1.62035988	      0.00000000	      0.00000000	     31.62286048	    -19.05198352	     -7.38775034	     27.28647519	      0.47623883	     -9.51889422	      0.68725728	      0.00000000	      0.00000000	    -52.94740331	      5.26404745	     16.26140554	     37.62651381	    -27.57890785	     15.17042306	     95.54915063	     53.10154686	      0.00000000	      0.00000000	     33.89231712	    -21.18132521	     16.31990129	     89.83808881	     48.44340813	      0.00000000	      0.00000000
      7.53500000	    -26.14488262	     -9.91751971	    -10.75225589	      0.39172427	      1.05925719	     -0.24572196	      0.00000000	      0.50000000	      0.00000000	      0.25000000	     76.70720857	     10.53492404	      2.47723643	    115.63941575	      2.01828855	     16.22596968	      2.16449976	      0.00000000	      0.00000000	     30.14452549	    -19.32972962	     -9.06399712	     27.22626124	      0.47518790	     -9.65114046	      1.47169028	      0.00000000	      0.00000000	    -53.49523226	      4.71134758	     16.98226390	     37.81868346	    -28.70887462	     15.91190037	     95.96039638	     53.24347711	      0.00000000	      0.00000000	     33.96027329	    -20.18271639	     15.24840200	     89.10861661	     48.24428880	      0.00000000	      0.00000000
      7.54000000	    -26.12003530	     -9.72408835	    -11.64379541	      0.39205228	      1.06052212	     -0.24526162	      0.00000000	      0.50000000	      0.00000000	      0.25000000	     77.41023110	     10.97353951	      2.54465879	    115.16617450	      2.01002893	     16.89901251	      2.50069413	      0.00000000	      0.00000000	     29.17591010	    -19.61715578	    -10.47317949	     27.44940261	      0.47908245	     -9.98426487	      1.74008212	      0.00000000	      0.00000000	    -53.76086005	      4.26644956	     17.61919624	     38.10164130	    -29.43453189	     16.39499164	     96.32242203	     53.34725721	      0.00000000	      0.00000000	     33.87279227	    -19.60159164	     14.32592259	     88.61992052	     48.10600604	      0.00000000	      0.00000000
      7.54500000	    -26.04445335	     -9.51176402	    -12.38008064	      0.39236355	      1.06199197	     -0.24467834	      0.00000000	      0.50000000	      0.00000000	      0.25000000	     77.91821875	     11.36467724	      2.62838989	    114.52544014	      1.99884601	     17.67121230	      2.77721201	      0.00000000	      0.00000000	     28.32205948	    -19.82257181	    -11.72202473	     27.88961398	      0.48676559	    -10.31062715	      1.87679899	      0.00000000	      0.00000000	    -54.13613536	      3.84499791	     18.04256392	     38.53303271	    -29.83148541	     16.77119866	     96.56137348	     53.41650399	      0.00000000	      0.00000000	     33.83340236	    -19.30156543	     13.80575917	     88.28752502	     48.02657999	      0.00000000	      0.00000000
      7.55000000	    -26.05006142	     -9.27568767	    -13.02508805	      0.39264983	      1.06340930	     -0.24436667	      0.00000000	      0.50000000	      0.00000000	      0.25000000	     78.39057013	     11.63394640	      2.67109249	    113.70177734	      1.98447038	     18.42378029	      2.98530885	      0.00000000	      0.00000000	     27.73402232	    -19.93000020	    -12.68569959	     28.56494533	      0.49855235	    -10.57064605	      1.74009904	      0.00000000	      0.00000000	    -54.43366954	      3.46165236	     18.31647918	     38.96065128	    -30.12631566	     17.07113253	     96.73545221	     53.46780071	      0.00000000	      0.00000000	     33.83042001	    -19.08800295	     13.37428497	     88.03287940	     47.95836088	      0.00000000	      0.00000000
      7.55500000	    -26.05535859	     -8.96131564	    -13.49621290	      0.39297381	      1.06485058	     -0.24425933	      0.00000000	      0.50000000	      0.00000000	      0.25000000	     78.71078023	     11.64304222	      2.68382093	    112.71165006	      1.96718940	     19.29919276	      3.24336091	      0.00000000	      0.00000000	     27.35307250	    -19.88071146	    -13.42538019	     29.48720415	      0.51464880	    -10.76716786	      1.57456176	      0.00000000	      0.00000000	    -54.71112895	      3.12213759	     18.42926390	     39.38243318	    -30.39919730	     17.37607638	     96.89293282	     53.51725307	      0.00000000	      0.00000000	     33.81256229	    -18.83063469	     13.07314818	     87.85385280	     47.91185264	      0.00000000	      0.00000000
      7.56000000	    -26.10064957	     -8.71507121	    -13.77073859	      0.39342011	      1.06630388	     -0.24430685	      0.00000000	      0.50000000	      0.00000000	      0.25000000	     78.86904357	     11.57554201	      2.69042662	    111.54240363	      1.94678220	     20.34355685	      3.70807656	      0.00000000	      0.00000000	     27.20807372	    -19.81988717	    -13.73701624	     30.62233573	      0.53446058	    -10.84802513	      1.44937624	      0.00000000	      0.00000000	    -55.00234030	      2.96712121	     18.35563382	     40.13419558	    -31.19519580	     18.70322288	     97.04171367	     53.66214372	      0.00000000	      0.00000000	     33.61494849	    -18.29837400	     12.21863946	     87.68048806	     47.85414680	      0.00000000	      0.00000000
